<?xml version="1.0" standalone="no"?>
<!DOCTYPE svg PUBLIC "-//W3C//DTD SVG 20010904//EN"
 "http://www.w3.org/TR/2001/REC-SVG-20010904/DTD/svg10.dtd">
<svg version="1.0" xmlns="http://www.w3.org/2000/svg"
 width="260.000000pt" height="260.000000pt" viewBox="0 0 260.000000 260.000000"
 preserveAspectRatio="xMidYMid meet">
<metadata>
Created by potrace 1.14, written by Peter Selinger 2001-2017
</metadata>
<g transform="translate(0.000000,260.000000) scale(0.100000,-0.100000)"
fill="#000000" stroke="none">
<path d="M995 2279 c-88 -13 -168 -44 -280 -110 -192 -114 -361 -273 -421
-396 -23 -46 -27 -68 -28 -152 -1 -95 0 -101 29 -142 17 -24 53 -57 79 -74
l49 -30 221 -5 c224 -5 243 -8 289 -48 27 -24 21 -49 -37 -136 -107 -160 -213
-252 -342 -297 -121 -43 -185 -37 -346 27 -54 22 -99 34 -120 32 -31 -3 -33
-6 -42 -51 -17 -96 52 -191 173 -238 70 -28 255 -38 341 -19 66 15 181 66 245
110 125 86 265 249 332 388 35 71 38 84 37 162 0 47 -6 102 -13 122 -18 54
-91 122 -159 149 -52 21 -73 23 -258 24 -184 0 -204 2 -223 19 -38 34 -27 62
57 148 42 44 106 102 142 129 84 64 223 134 295 149 49 10 63 9 117 -9 34 -12
86 -21 115 -21 71 0 87 23 81 116 -4 62 -7 69 -44 104 -60 56 -142 70 -289 49z"/>
<path d="M1660 1933 c-30 -12 -53 -39 -75 -88 -21 -46 -27 -52 -80 -70 -80
-28 -96 -52 -98 -149 -2 -71 0 -79 22 -97 13 -10 34 -19 47 -19 25 0 31 -17
15 -48 -4 -9 -25 -71 -46 -137 -21 -66 -46 -139 -57 -163 -10 -24 -28 -80 -39
-125 -10 -45 -24 -90 -29 -99 -6 -10 -10 -26 -10 -35 -1 -38 -99 -415 -118
-451 -49 -95 -48 -205 4 -238 37 -25 108 -14 146 22 48 46 67 96 108 278 56
249 60 265 79 270 9 3 76 17 150 31 365 73 601 168 754 305 31 29 69 73 84 98
25 42 28 57 31 168 4 119 4 123 -24 174 -77 141 -259 224 -553 251 l-129 12
-18 38 c-9 21 -25 46 -35 55 -19 17 -102 28 -129 17z m538 -381 c29 -11 69
-32 88 -47 34 -26 74 -90 74 -120 0 -47 -114 -140 -243 -200 -147 -68 -464
-163 -511 -153 -14 2 -7 31 48 188 77 224 114 322 126 334 18 18 88 25 225 22
114 -2 150 -6 193 -24z"/>
</g>
</svg>
